<svg xmlns="http://www.w3.org/2000/svg" width="2048" height="2048"><g stroke="#000"><path d="M380.809 556.956c.963-2.484 1.698-5.189 2.183-8.102 6.801-49.869 32.922-94.505 70.859-125.33 26.984-21.446 59.604-35.894 94.836-40.699a42.025 42.025 0 0 0 6.707-1.674 194.687 194.687 0 0 1 20.491-1.078c99.283 0 180.127 72.335 192.892 168.781 1.418 15.601 14.183 26.948 29.785 26.948h7.092c15.601 0 26.948-9.928 29.784-26.948 9.929-93.61 92.192-168.781 191.474-168.781 99.283 0 180.128 72.335 192.893 168.781 1.418 15.601 14.183 26.948 29.785 26.948h5.673c15.601 0 26.948-9.928 29.785-26.948 9.928-93.61 93.609-168.781 191.474-168.781 52.716 0 100.905 20.989 136.144 55.429 34.439 35.238 55.428 83.427 55.428 136.143 0 97.864-75.172 181.546-168.781 191.474-17.02 2.837-26.948 14.183-26.948 29.785v5.673c0 15.602 11.346 28.367 26.948 29.785 96.446 12.765 168.781 93.61 168.781 192.892 0 99.283-75.172 181.546-168.781 191.474-17.02 2.837-26.948 14.184-26.948 29.785v7.092c0 15.601 11.346 28.366 26.948 29.785 96.446 12.765 168.781 93.609 168.781 192.892 0 6.334-.306 12.592-.903 18.762-.963 2.484-1.698 5.189-2.183 8.102-6.801 49.869-32.922 94.506-70.86 125.331-26.984 21.445-59.603 35.893-94.835 40.697a42.133 42.133 0 0 0-6.707 1.675 194.687 194.687 0 0 1-20.491 1.078c-99.283 0-180.127-72.335-192.892-168.781-1.418-15.601-14.183-26.948-29.785-26.948h-7.092c-15.601 0-26.948 9.928-29.784 26.948-9.929 93.61-92.192 168.781-191.474 168.781-99.283 0-180.128-72.335-192.893-168.781-1.418-15.601-14.183-26.948-29.785-26.948h-5.673c-15.601 0-26.948 9.928-29.785 26.948-9.928 93.61-93.609 168.781-191.474 168.781-52.716 0-100.905-20.989-136.144-55.429h0c-34.439-35.238-55.428-83.427-55.428-136.143 0-97.864 75.172-181.546 168.781-191.474 17.02-2.837 26.948-14.183 26.948-29.785v-5.673c0-15.602-11.346-28.367-26.948-29.785-96.446-12.765-168.781-93.61-168.781-192.892 0-99.283 75.172-181.546 168.781-191.474 17.02-2.837 26.948-14.184 26.948-29.785v-7.092c0-15.602-11.346-28.366-26.948-29.785-96.446-12.765-168.781-93.609-168.781-192.892 0-6.333.306-12.592.903-18.762h0Zm168.026-236.715a39.499 39.499 0 0 0-7.24-1.24c-65.826 8.976-124.156 43.201-164.588 92.479-30.473 36.408-51.156 81.267-57.839 130.282.162 2.11.491 4.183.975 6.199a253.572 253.572 0 0 0-1.225 24.92c0 96.446 55.315 181.546 134.741 225.514-79.426 42.55-134.741 130.486-134.741 225.514 0 96.446 55.315 181.546 134.741 225.514-79.426 42.55-134.741 127.649-134.741 225.514 0 7.177.292 14.281.864 21.301a32.619 32.619 0 0 0-.766 10c7.826 58.045 34.546 109.792 73.816 148.759 38.968 39.272 90.717 65.994 148.763 73.82a32.619 32.619 0 0 0 10-.766c7.021.572 14.125.864 21.302.864 97.864 0 182.964-55.315 225.513-134.741 43.969 79.426 129.068 134.741 225.514 134.741 95.028 0 182.964-55.315 225.514-134.741 43.968 79.426 129.068 134.741 225.514 134.741 8.162 0 16.239-.391 24.213-1.156 2.341.63 4.765 1.05 7.24 1.24 65.826-8.976 124.156-43.201 164.588-92.479 30.473-36.408 51.156-81.267 57.839-130.282a39.515 39.515 0 0 0-.975-6.199 253.572 253.572 0 0 0 1.225-24.92c0-96.446-55.315-181.546-134.741-225.514 79.426-42.55 134.741-130.486 134.741-225.514 0-96.446-55.315-181.546-134.741-225.514 79.426-42.55 134.741-127.649 134.741-225.514 0-7.177-.292-14.281-.864-21.301a32.619 32.619 0 0 0 .766-10c-7.826-58.045-34.546-109.792-73.816-148.759-38.968-39.272-90.717-65.994-148.763-73.82a32.619 32.619 0 0 0-10 .766 262.293 262.293 0 0 0-21.302-.864c-97.864 0-182.964 55.315-225.513 134.741-43.969-79.426-129.068-134.741-225.514-134.741-95.028 0-182.964 55.315-225.514 134.741-43.968-79.426-129.068-134.741-225.514-134.741-8.162 0-16.239.391-24.213 1.156h0Z" stroke-width="95.46" stroke-linecap="square"/><path d="M1229.502 947.517c0 113.159-91.683 204.841-204.842 204.841-113.158 0-204.841-91.683-204.841-204.84" fill="none" stroke-width="116.88" stroke-linecap="round" stroke-linejoin="round"/></g></svg>